<?xml version="1.0" standalone="no"?>
<!DOCTYPE svg PUBLIC "-//W3C//DTD SVG 20010904//EN"
 "http://www.w3.org/TR/2001/REC-SVG-20010904/DTD/svg10.dtd">
<svg version="1.0" xmlns="http://www.w3.org/2000/svg"
 width="1024.000000pt" height="1024.000000pt" viewBox="0 0 1024.000000 1024.000000"
 preserveAspectRatio="xMidYMid meet">
<metadata>
Created by potrace 1.11, written by Peter Selinger 2001-2013
</metadata>
<g transform="translate(0.000000,1024.000000) scale(0.100000,-0.100000)"
fill="#000000" stroke="none">
<path d="M7444 7489 c-541 -52 -1033 -284 -1519 -715 -192 -170 -405 -386
-781 -793 l-42 -45 -223 216 c-354 340 -567 527 -796 696 -600 442 -1165 606
-1823 531 -1047 -119 -1931 -873 -2169 -1849 -49 -202 -64 -339 -64 -570 0
-310 38 -556 128 -825 289 -874 1036 -1469 2053 -1636 172 -28 520 -23 711 11
258 45 476 117 716 236 473 233 906 601 1507 1278 4 6 102 -87 237 -225 336
-344 571 -550 829 -727 305 -208 585 -337 903 -416 218 -54 319 -67 574 -73
205 -5 244 -3 358 16 299 51 544 129 802 256 742 364 1211 994 1341 1802 24
153 30 518 10 687 -96 827 -593 1528 -1341 1891 -299 146 -568 221 -904 255
-117 11 -386 11 -507 -1z m444 -560 c224 -24 498 -100 695 -192 571 -267 970
-787 1063 -1384 22 -141 22 -393 0 -533 -66 -428 -268 -823 -577 -1131 -387
-384 -900 -579 -1425 -540 -520 39 -965 242 -1470 671 -136 116 -644 622 -644
641 1 8 29 45 64 82 l62 68 240 -232 c315 -306 482 -459 634 -582 328 -265
594 -386 943 -432 534 -69 1080 100 1444 449 258 246 416 542 500 935 25 114
28 145 27 331 0 175 -3 220 -23 310 -47 221 -123 401 -248 590 -108 163 -311
365 -482 479 -344 229 -658 313 -1058 282 -510 -39 -865 -216 -1319 -654 -143
-138 -521 -533 -829 -867 -99 -107 -229 -247 -290 -310 -60 -64 -238 -257
-394 -430 -455 -503 -733 -773 -1009 -978 -436 -324 -874 -483 -1332 -482
-376 1 -722 113 -1040 338 -113 80 -332 294 -419 409 -212 284 -346 603 -397
953 -25 175 -16 445 20 604 37 157 75 265 146 411 271 552 790 952 1403 1081
167 35 450 44 613 20 437 -64 862 -295 1349 -731 131 -118 575 -565 575 -580
0 -6 -30 -41 -68 -78 l-67 -67 -182 173 c-100 94 -272 258 -382 364 -400 383
-606 528 -890 627 -270 94 -658 122 -930 66 -400 -81 -815 -348 -1071 -689
-322 -427 -405 -986 -230 -1536 187 -584 662 -993 1310 -1126 102 -21 141 -24
345 -24 199 1 243 4 331 23 445 97 817 348 1362 922 252 264 629 665 687 730
28 30 99 106 158 169 60 63 233 256 385 430 152 174 342 385 421 469 534 569
1012 869 1507 946 109 17 361 20 492 5z m17 -750 c432 -53 785 -355 923 -789
41 -129 55 -224 56 -360 0 -295 -122 -559 -368 -798 -151 -146 -293 -234 -473
-292 -264 -85 -589 -52 -868 87 -212 107 -367 235 -780 650 l-342 342 151 163
c431 466 548 581 726 713 306 227 642 325 975 284z m-5109 -132 c234 -66 448
-191 721 -422 65 -55 243 -226 396 -379 l277 -280 -68 -71 c-38 -38 -142 -151
-232 -250 -449 -495 -707 -696 -1025 -800 -136 -44 -242 -58 -410 -52 -180 6
-250 23 -410 102 -343 168 -603 502 -671 861 -24 130 -15 334 21 469 99 373
387 679 753 799 134 45 220 56 392 52 138 -3 180 -8 256 -29z"/>
</g>
</svg>
